<?xml version="1.0" standalone="no"?><!-- Generator: Gravit.io --><svg xmlns="http://www.w3.org/2000/svg" xmlns:xlink="http://www.w3.org/1999/xlink" style="isolation:isolate" viewBox="-33 98 331.651 142.213" width="331.651" height="142.213"><defs><clipPath id="_clipPath_lIAVtiP5rIFzxjowbZZ9fbxGe5sAeQVo"><rect x="-33" y="98" width="331.651" height="142.213"/></clipPath></defs><g clip-path="url(#_clipPath_lIAVtiP5rIFzxjowbZZ9fbxGe5sAeQVo)"><g><path d=" M 131.7 223.712 L 121.2 206.912 L 123.6 202.412 C 125 199.912 127.2 196.612 128.5 195.012 L 130.8 192.112 L 136.2 193.512 L 141.5 194.912 L 142.2 217.412 C 142.5 229.812 142.7 240.012 142.6 240.212 C 142.4 240.312 137.5 232.912 131.7 223.712 Z " fill="rgb(0,0,0)"/><path d=" M 158.7 217.912 C 151.1 207.312 146 195.988 146 196 C 145.938 196.113 146.4 196.012 155.1 198.012 C 160.5 199.212 162.4 200.112 163.1 201.712 C 164.2 204.412 171.1 233.612 170.7 234.012 C 170.5 234.212 165.1 226.912 158.7 217.912 Z " fill="rgb(0,0,0)"/><path d=" M 59.6 202.112 C 57.4 200.912 54.7 198.612 53.6 197.112 L 51.5 194.212 L 53.9 192.312 L 56.2 190.412 L 60.1 193.912 C 63.3 196.812 64.8 197.412 68.4 197.412 C 73.8 197.412 79 193.612 79 189.812 C 79 187.212 77.9 186.812 74.8 188.512 C 71.9 190.112 64.7 189.812 61.2 188.012 C 49.3 181.912 47.9 163.012 58.8 154.912 C 62.4 152.312 71.6 151.612 75.8 153.812 C 79.6 155.812 80 155.812 80 153.912 C 80 152.912 81.1 152.412 83.5 152.412 L 87 152.412 L 87 171.412 C 87 194.612 86.3 197.012 78.6 201.412 C 72.1 205.212 65.3 205.412 59.6 202.112 Z  M 75.9 180.612 C 78.2 178.912 78.5 177.912 78.8 171.712 C 79.1 164.912 79 164.612 76 162.012 C 70.7 157.612 63.5 158.712 60.5 164.412 C 54.6 175.812 66.1 187.912 75.9 180.612 Z " fill="rgb(0,0,0)"/><path d=" M 185.5 199.312 C 183.9 198.812 172.1 196.312 159.3 193.812 C 146.6 191.212 135.6 188.812 135 188.412 C 133.7 187.612 137.6 179.812 139.7 179.012 C 140.3 178.712 154.3 179.212 170.7 180.012 C 187.1 180.712 206.6 181.612 214 181.912 C 224.3 182.362 230.902 182.888 231 183 C 231.253 183.029 226.3 185.962 218 189.112 C 188.6 200.212 188.7 200.212 185.5 199.312 Z " fill="rgb(0,0,0)"/><path d=" M 105.7 189.412 C 92.8 186.912 86.8 169.612 95.1 159.012 C 99.8 153.012 111.3 150.412 117.9 153.912 C 123.8 156.912 128.7 165.512 127.8 171.412 L 127.5 173.912 L 113.7 174.212 C 100.1 174.512 99.9 174.512 100.2 176.612 C 100.6 179.612 106.5 183.412 110.7 183.412 C 113.2 183.412 115.375 182.906 117.5 181 C 119.375 179.281 120.7 177.612 123 178.112 C 124.7 178.412 126 179.112 126 179.612 C 126 182.012 122.1 185.912 117.5 188.012 C 112.969 189.844 110.062 189.891 105.7 189.412 Z  M 120 166.412 C 120 165.912 119.108 163.805 117.5 162.012 C 114.9 159.112 113.063 159.082 109.6 159.012 C 104.5 159.112 100 162.212 100 165.612 C 100 167.212 101 167.412 110 167.412 C 115.9 167.412 120 167.012 120 166.412 Z " fill="rgb(0,0,0)"/><path d=" M -33 188.412 C -33 187.812 -32.1 185.612 -31 183.512 C -30 181.412 -27.2 175.012 -25 169.312 C -22.7 163.612 -19 154.712 -16.7 149.712 C -12.8 140.912 -12.5 140.412 -9.6 140.412 C -6.6 140.412 -6.3 140.912 -2.8 149.712 C -0.8 154.712 3.3 164.812 6.3 172.012 C 14.1 190.712 13.9 189.412 9.2 189.412 C 5.3 189.412 5.2 189.312 3 183.712 C 1.7 180.512 0.2 177.312 -0.3 176.712 C -0.9 175.812 -4.2 175.412 -10.2 175.412 L -19.1 175.412 L -20.6 179.212 C -24.8 189.212 -25 189.412 -29.1 189.412 C -31.3 189.412 -33 188.912 -33 188.412 Z  M -3.8 167.812 C -2.9 167.012 -9.3 153.312 -10.3 153.712 C -11.3 154.012 -16 165.012 -16 167.112 C -16 168.012 -14.4 168.412 -10.2 168.412 C -7 168.412 -4.1 168.112 -3.8 167.812 Z " fill="rgb(0,0,0)"/><path d=" M 15 170.912 L 15 152.412 L 19 152.412 C 21.9 152.412 23 152.812 23 153.912 C 23 155.712 23.8 155.712 27 153.912 C 28.4 153.112 31.6 152.512 34.2 152.412 C 44.9 152.412 47 156.112 47 175.912 L 47 189.412 L 43.5 189.412 L 40 189.412 L 40 179.712 C 39.9 168.412 38.8 161.512 36.9 160.312 C 33.9 158.412 29.8 159.412 26.4 162.812 L 23 166.212 L 23 177.812 L 23 189.412 L 19 189.412 L 15 189.412 L 15 170.912 Z " fill="rgb(0,0,0)"/><path d=" M 198 175.012 C 195.577 174.82 192.672 174.688 191.149 174.589 C 185.133 174.305 184.81 174.303 177.5 174.012 C 157.3 173.312 143 172.412 143 171.712 C 143 171.012 147.8 161.912 149.2 160.212 C 150.9 158.012 169.6 155.012 221 148.912 C 242.2 146.412 260.4 144.112 261.5 143.712 C 261.422 143.789 261.6 145.112 236.7 160.312 Q 211.934 175.366 211.9 175.412 Q 211.887 175.43 204.6 175.412 C 201.387 175.16 201.328 175.172 198 175.012 Z " fill="rgb(0,0,0)"/><path d=" M 157.1 145.212 C 162.5 134.412 163.2 133.812 172.3 131.012 C 176.8 129.712 190.4 126.012 202.5 123.012 C 214.6 120.012 235.5 114.512 249 110.912 C 273.5 104.312 292.9 99.312 298.5 98.012 C 301.8 97.212 249.8 136.612 244.5 138.912 C 242.9 139.612 226.4 142.012 208 144.312 C 189.6 146.612 171.6 148.912 168 149.412 C 164.4 149.912 159.8 150.612 157.7 150.912 L 154 151.412 L 157.1 145.212 Z " fill="rgb(0,0,0)"/><path d=" M -1 143.412 L -3 139.412 L 76 139.412 Q 132.6 139.412 155 140 L 153.3 144 L 151.6 147.412 L 76.3 147.412 L 1 147.412 L -1 143.412 Z " fill="rgb(0,0,0)"/></g></g></svg>